<?xml version="1.0" encoding="UTF-8"?>
<svg id="Layer_1" data-name="Layer 1" xmlns="http://www.w3.org/2000/svg" viewBox="0 0 595.28 1024">
  <defs>
    <style>
      .cls-1 {
        fill: #f9f7eb;
      }
    </style>
  </defs>
  <path class="cls-1" d="M521.71,540.63c-3.85,15.23-8.96,29.72-17.8,42.56-6.05,8.78-12.44,17.34-22.8,21.71-6.38,2.69-12.89,3.36-19.56,1.66-2.51-.64-3.64-.1-4.24,2.52-2.33,10.08-3.85,20.29-5.42,30.5-2.23,14.57-2.73,29.25-2.23,43.94.4,11.95.64,23.95,3.35,35.69,2.45,10.62,7.34,19.71,16.66,25.97,1.62,1.09,3.9,2.55,2.81,4.81-1.18,2.42-3.78,1.83-5.95,1.15-8.59-2.69-14.23-8.63-18.13-16.5-3.93-7.94-5.11-16.59-6.14-25.2-1.78-14.9-2.15-29.89-1.73-44.89,0-.16-.15-.32-.35-.7-1.72,1.59-2.38,3.74-3.32,5.63-13.16,26.25-32.27,47.07-56.82,63.12-13.11,8.57-26.79,15.88-41.63,20.94-10,3.41-20.26,5.61-30.75,6.94-10.1,1.29-20.24,1.19-30.3.4-20.83-1.64-41.1-5.92-59.91-15.53-7.38-3.77-13.46-9.43-19.99-14.41-3.12-2.38-6.26-4.72-9.81-7.39.55,5.64,1.04,10.67,1.54,15.69.52,5.28,1,10.56,1.59,15.83.66,5.96,1.03,11.92.67,17.91-.3,4.88-1.69,9.29-5.37,12.76-1.42,1.34-3.09,1.93-4.99,1.98-.95.03-2.04.17-2.53-.94-.46-1.03-.41-2.1.35-3,4.22-5.06,4.43-11.01,4.18-17.22-.58-14.49-3.26-28.77-4.19-43.21-.33-5.18-2.36-8.83-6.49-12.12-21.43-17.12-38.15-37.85-47.31-64.05-4.1-11.73-6.42-23.86-7.35-36.26-.35-4.72-.75-9.43-1.05-14.15-.08-1.2-.47-2.03-1.54-2.56-9.22-4.57-14.68-12.66-18.71-21.5-7.84-17.2-13.55-35.2-16.23-53.94-1.92-13.43-1.26-26.81,4.32-39.57,2.38-5.45,5.61-10.17,10.55-13.55,1.85-1.27,2.15-2.21.5-4.06-8.44-9.46-17.16-18.8-23.68-29.7-7.24-12.1-6.52-19.86,2.88-31.89,1.82-2.34,4.03-4.38,6.27-6.79-2.82-2.19-5.42-4.31-8.12-6.27-6.27-4.56-10.09-10.94-12.89-17.9-2.21-5.47-3.01-11.38-3.79-17.22-.14-1.09-.54-2.51.5-3.29,1.18-.88,2.2.29,3.12.87,8.81,5.53,15.86,2.55,20.07-1.93,3.42-3.65,5.66-8.26,6.96-13.24,1.52-5.81,2.39-11.65,2.55-17.71.3-11.19.87-22.51,5.7-32.88,8.35-17.94,19.7-33.41,38.23-42.03,9.73-4.53,20.12-6.57,30.99-6.09,13.36.59,25.57,4.61,36.91,11.56,2.64,1.62,5.49,2.88,7.89,4.89,1.35,1.13,2.31.28,3.21-.7,3.86-4.22,7.83-8.28,12.71-11.39,13.9-8.87,28.87-14.5,45.34-16.58,10.27-1.3,20.52-2.41,30.85-2.44,7.13-.02,14.21,1.24,21.3,2.07,18.32,2.15,34.9,8.99,50.5,18.52,6.78,4.14,12.53,9.75,19.48,13.64,6.41,3.59,12.66,7.51,19.9,9.35,4.9,1.25,9.79,1.94,14.89.96,5.44-1.05,9.23-4.85,9.7-10.34.07-.87.09-1.74.18-2.61.18-1.68.99-2.3,2.77-1.95,3.2.64,5.98,2.17,8.78,3.7,21.25,11.57,34.47,29.39,40.9,52.51.78,2.79,1.53,5.58,2.4,8.34,1.74,5.49,6.47,8.59,10.25,12.36,13.3,13.27,21.68,29.05,24.53,47.6,1.5,9.76,1.19,19.47-2.94,28.72-1.63,3.65-3.9,6.92-6.32,10.05-4.27,5.5-4.39,11.94-4.68,18.44-.5,11.12-3.98,21.22-10.91,30.03-.48.61-.95,1.22-1.36,1.88-.74,1.18-.52,1.95.95,2.31,15.61,3.79,20.44,15.87,23.02,29.79,1.12,6.03,1.28,12.07,1.15,18.16-.2,8.84-1.87,17.45-4.03,26.22M440.68,634.48c6.45-19.52,10.74-39.47,12.06-60.02.16-2.48.16-5.06,1.57-7.29,1.38-2.18,4.13-2.17,5.43.05.43.73.67,1.61.85,2.45,1.35,6.25.57,12.52-.16,18.74-.8,6.87,3.63,11.03,10.66,9.9,5.17-.83,9.53-3.17,13.24-6.72,7.43-7.09,13.15-15.49,17.77-24.59,5.1-10.05,8.11-20.81,10.61-31.78,1.64-7.18,3.14-14.33,3.4-21.69.34-9.86-.9-19.44-4.75-28.65-4.55-10.9-16.3-11.37-23.62-6.87-4.51,2.77-8.28,6.32-11.15,10.83-2.7,4.26-4.94,8.76-7.31,13.2-2.17,4.08-4.07,8.42-8.63,10.61-4.58,2.21-7.72.75-8.79-4.07-.32-1.45-.32-2.87-.37-4.32-.33-10.22,1.02-20.39.71-30.64-.38-12.47-2.88-24.35-7.88-35.68-1.89-4.28-1.79-8.18-.04-12.29.57-1.34,1.11-2.68,1.6-4.05,2.52-6.96,4.18-14.16,3.75-21.55-.37-6.24-1.36-12.48-3.27-18.49-2-6.32-4.82-12.23-9.09-17.37-1.52-1.83-3.16-3.37-5.89-3-7.64,1.04-15.28.86-22.73-1.07-19.06-4.93-34.53-15.18-45.89-31.44-5.58-7.99-11.99-15.21-20.27-20.53-12.03-7.71-25.42-7.09-38.79-6.02-9.15.73-17.78,4.51-27.01,4.96-7.12.35-13.85-.73-19.61-5.36-6.26-5.04-8.17-5.24-15.15-1.49-.85.45-1.64,1.04-2.37,1.67-1.68,1.44-3.24,1.16-4.54-.41-1.36-1.63-2.59-3.37-3.77-5.14-1.09-1.63-2.33-2.41-4.39-1.77-10.28,3.2-17.38,10.09-22.65,19.2-1.13,1.95-1.31,3.9-.86,6.13,1.91,9.49,1.03,18.8-1.9,27.99-2.63,8.23-7.67,14.89-13.4,21.13-7.75,8.45-16.57,15.15-28.32,16.84-4.54.65-9.07.27-13.49-1.06-1.06-.32-2.01-.93-2.1-2.15-.11-1.3.9-1.83,1.93-2.22,1.44-.56,2.91-1.07,4.35-1.62,14.87-5.67,24.04-16.15,26.55-32,.51-3.21.66-6.65-1.03-9.91-1.19.98-1,2.24-1.31,3.31-1.34,4.68-2.9,9.35-6.12,13.03-7.48,8.54-15.91,15.81-27.27,18.83-4.29,1.14-7.08,4-8.55,8.31-3.21,9.43-4.28,19.16-4.6,29.03-.29,9.01.8,17.96,1.12,26.94.3,8.59.33,17.18.76,25.76.59,11.75,1.49,23.49,2.18,35.24.32,5.5.28,11.02.72,16.51,1.01,12.38.74,24.78-1.17,36.98-2,12.8-3.92,25.57-4.7,38.5-.71,11.83.12,23.63,2.46,35.23,4.92,24.36,16.73,45.16,33.64,63.2,8.09,8.64,17.15,16.24,25.92,24.14,6.33,5.69,13.19,10.75,20.61,15.01,13.17,7.57,27.32,12.08,42.36,14.07,13.6,1.79,27.25,2.79,40.95,3.34,6.1.24,12.19-.22,18.25-.67,5.67-.42,11.35-1.17,16.92-2.28,8.06-1.61,15.83-4.28,23.49-7.31,24.87-9.81,45.17-25.68,61.44-46.67,12.25-15.8,21.36-33.38,27.62-52.9M120.79,539.09c-.41-1.29-.83-2.57-1.22-3.87-2.92-9.53-5.94-19.02-10.98-27.72-2.44-4.22-5.08-8.07-10.58-8.47-1.09-.08-2.44-.05-2.78-1.58-.32-1.47.18-2.63,1.3-3.62,1.29-1.14,2.75-1.75,4.47-1.8,4.75-.14,8.01,2.47,10.75,5.91,2.42,3.04,4.11,6.54,5.89,9.99,2.88,5.57,4.82,11.5,7.08,17.37.25-5.26.36-10.46.23-15.66-.22-8.85-2.16-17.26-6.99-24.81-2.68-4.19-5.68-8.1-10.3-10.38-4-1.98-7.17-1.36-10.19,1.92-2.73,2.96-4.6,6.41-5.97,10.19-4.06,11.19-4.72,22.77-2.75,34.3,3.06,17.89,8.41,35.13,17.1,51.2,2.19,4.04,5.1,7.51,8.58,10.5.73.63,1.52,1.42,2.54,1.08,1.04-.34.74-1.43.87-2.26,1.08-6.66,1.7-13.37,3.24-19.97,1.69-7.23,3.06-14.61-.3-22.32Z"/>
  <path class="cls-1" d="M348.78,426.76c-8.24-.21-16.11.87-24,1.59-2.75.25-5.44-.14-8.05-.71-3.75-.81-5.51-5.63-3.82-9.8,1.68-4.14,5.15-6.43,8.92-8.32,8.25-4.12,17.12-4.55,26.06-3.94,10.81.75,21.47,2.56,31.69,6.32,14.13,5.2,26.97,12.25,35.44,25.38,2.71,4.21,4.69,8.68,4.87,13.76.04,1.2.43,2.76-1.09,3.3-1.38.49-2.01-.92-2.72-1.75-5.7-6.73-12.36-12.28-20.3-16.13-9.92-4.81-20.51-7.34-31.41-8.58-5.08-.57-10.16-1.25-15.58-1.13Z"/>
  <path class="cls-1" d="M309.68,485.28c1.82-15.28,6.04-29.2,18.91-38.65,16.76-12.3,37.15-9.72,51.96,2.87,12.01,10.21,17.97,23.73,19.61,39.24,1.44,13.67-.92,26.56-8.27,38.35-3.02,4.85-6.97,8.79-11.98,11.58-1.17.65-2.45,1.13-3.72,1.6-1.6.6-3.06.55-3.94-1.25-.89-1.81.28-2.69,1.58-3.48,4.59-2.78,8.25-6.55,10.64-11.27,3.55-7.01,6.19-14.36,7.14-22.27,1.98-16.56-2.33-31.3-13.85-43.24-9.64-9.98-21.6-14.66-35.64-10.35-8.77,2.69-14.44,9.15-18.7,16.91-6.09,11.1-7.16,23.04-5.96,35.47,1.3,13.42,6.78,24.65,16.36,33.98.76.74,1.59,1.42,2.4,2.11,1.37,1.14,2.49,2.65,1.32,4.24-1.16,1.58-2.95.9-4.46.04-3.48-2-6.45-4.65-9.04-7.67-8.98-10.45-13.02-22.87-14.42-36.36-.4-3.88-.08-7.72.06-11.84Z"/>
  <path class="cls-1" d="M347.38,638.19c2.29.54,1.91-.92,1.75-2.03-.3-2.06-1.57-3.71-2.48-5.52-.72-1.44-1.78-3.08-.18-4.51,1.66-1.49,3.5-.91,5.02.34,4.88,3.99,7.21,9.45,8.56,15.41,1.15,5.09-.93,10.09-5.29,12.73-1.33.8-2.76,1.74-4.32.79-1.44-.88-1.48-2.52-1.15-3.94.64-2.83-.77-4.07-3.16-4.92-7.68-2.73-15.59-4.34-23.67-5.34-11.44-1.42-22.92-2.2-34.43-1.53-9.58.56-19.17.71-28.72.24-10.35-.51-20.7-.36-31.05-.58-8.79-.19-17.56.53-26.28,1.81-2.28.33-2.8,1.39-1.93,3.38.04.09.05.19.08.28.44,2.03,1.7,4.41-.55,5.85-2.48,1.58-4.12-.7-5.64-2.22-6.06-6.08-3.91-19.34,3.7-23.24,1.08-.55,2.2-.99,3.25-.11,1.08.91,1.18,2.13.79,3.45-.35,1.18-1.2,2.22-1.08,3.52.66.95,1.61.75,2.41.59,16.43-3.3,33.06-2.79,49.67-2.79,9.58,0,19.16-.19,28.74-.31,22.29-.28,44.4,1.43,65.96,8.65Z"/>
  <path class="cls-1" d="M231.45,405.97c3.81,1.32,7.17,2.96,10.04,5.52,2.12,1.89,3.34,4.27,3.9,6.96,1.09,5.22-2.74,8.84-8.75,8.54-3.21-.16-6.29-1.02-9.45-1.41-11.22-1.39-22.35-.67-33.48,1.06-12.48,1.94-24.23,5.72-34.83,12.72-4.78,3.16-8.95,7.06-13.02,11.07-1.1,1.09-2.25,2.52-3.96,1.47-1.8-1.1-1.18-2.81-.59-4.41,5.1-13.88,15.04-23.52,27.53-30.66,12.22-6.98,25.52-10.85,39.47-12.65,7.79-1,15.4-.64,23.13,1.79Z"/>
  <path class="cls-1" d="M244.11,465.07c6.52,17.45,6.23,34.77.72,52.15-.15.46-.33.92-.56,1.33-.88,1.56-2.1,2.66-4,2.05-1.8-.58-2.16-2.18-1.88-3.8.49-2.85,1.22-5.66,1.76-8.5,2.63-13.67,2.35-27.15-3.37-40.07-3.78-8.54-9.31-15.9-18.29-19.34-12.32-4.73-27.95-1.54-37.74,10.45-7.21,8.83-10.81,19.05-11.45,30.42-.47,8.36-.28,16.62,2.61,24.57,2.67,7.34,7.04,13.53,13.03,18.56.59.5,1.2.99,1.74,1.54,1.04,1.05,2.18,2.26,1.3,3.78-.93,1.6-2.51,1.39-4.13.83-4.32-1.5-7.34-4.57-10.08-8.02-7.51-9.44-11.34-20.23-12.44-32.22-1.71-18.56,3.61-34.69,16.63-47.92,10.71-10.89,24.1-14.05,38.96-11.47,13.14,2.28,20.13,11.67,25.79,22.54.49.94.88,1.94,1.41,3.12Z"/>
  <path class="cls-1" d="M217.12,546.68c3.68-8.13,10.09-13.07,17.66-16.79,8.88-4.36,18.19-5.66,27.95-4.19,2.13.32,4.02,1.08,4.02,3.36,0,2.31-2.12,2.72-4.02,2.89-8.4.75-16.71,1.76-24.33,5.88-8.25,4.47-14.16,10.82-14.8,20.43-.59,8.77,3.53,15.68,10.85,20.52,6.73,4.44,14.4,6.14,22.25,6.74,11.01.84,21.85-.14,32.06-4.82,2.37-1.09,4.63-2.43,6.93-3.67,1.4-.76,2.92-1.52,4.32-.35,1.49,1.25,1.61,3.02.95,4.8-.96,2.62-2.67,4.67-4.82,6.42-6.97,5.69-15.19,8.43-23.9,9.69-11.82,1.71-23.42.47-34.36-4.44-11.86-5.33-20.9-13.44-23.17-27-1.1-6.55-.88-13.14,2.4-19.47Z"/>
  <path class="cls-1" d="M380.39,499.17c-.43,8.3-1.46,16.13-7.22,22.39-5.36,5.81-13.21,5.42-18.08-.8-3.42-4.37-4.54-9.58-5.23-14.86-.92-6.94-.71-13.94,1.13-20.69,1.29-4.74,3.48-9.21,7.38-12.56,3.6-3.1,7.38-3.56,11.51-1.19,2.92,1.68,5.15,4.02,6.56,7.15,2.92,6.46,4.36,13.19,3.95,20.57Z"/>
  <path class="cls-1" d="M235.48,505.37c-.9,4.53-2.04,8.69-4.32,12.5-1.49,2.49-3.45,4.37-6.04,5.66-5.1,2.54-10.38,1.24-13.77-3.45-3.03-4.19-4.23-9.04-4.95-14.04-1.53-10.7-.65-21.08,5.03-30.52,5.1-8.47,12.83-8.41,18.03-3.82,2.69,2.38,4.03,5.61,4.98,9.01,2.26,8.06,2.08,16.22,1.03,24.67Z"/>
  <path class="cls-1" d="M489.35,510.7c-1.84,3.1-3.37,6.12-4.47,9.34-.35,1.03-.72,2,.41,2.86,5.27,4.02,6.46,10.08,7.07,15.98.86,8.27-1.64,15.86-6.76,22.51-1.09,1.41-2.41,2.51-4.08,3.13-1.1.41-2.24.83-3.23-.22-1.01-1.06-.53-2.16,0-3.22.34-.69.8-1.33,1.18-2,3.39-5.94,5.38-12.16,4.03-19.11-.19-.99-.5-1.86-1.12-2.63-1.36-1.67-2.79-1.82-3.88.16-1.11,2.02-1.95,4.2-2.97,6.28-.47.95-1.01,1.89-1.63,2.74-.91,1.26-2.17,2.03-3.76,1.51-1.52-.5-1.93-1.83-1.78-3.29.63-5.88,1.92-11.64,4.01-17.15,3.26-8.59,6.48-17.26,12.29-24.57,3.94-4.96,8.23-9.58,14.96-10.75,1.83-.32,3.47,0,4.96,1.04,3.08,2.15,5.27,9.14,3.97,12.65-.37.99-.74,2.04-2.05,2.19-1.45.17-2.04-.84-2.61-1.89-.09-.17-.16-.35-.25-.53-2.73-5.75-5.8-6.15-9.98-1.15-1.55,1.85-2.81,3.94-4.3,6.1Z"/>
  <path class="cls-1" d="M278.43,665.29c6.74-.34,13.2-.4,19.59-1.61,1.67-.31,3.77-.74,4.7,1.18.95,1.96.37,4.02-1.22,5.59-2.89,2.86-6.4,4.92-10.31,5.64-15.63,2.88-31.26,3.23-46.71-1.16-2.97-.84-5.74-2.29-8.24-4.17-1.41-1.06-2.6-2.32-3.35-3.94-.65-1.4-.74-2.79.15-4.14.93-1.42,2.29-1.24,3.64-.92,9.24,2.18,18.7,2.67,28.11,3.39,4.43.34,8.9.11,13.63.13Z"/>
</svg>